<?xml version="1.0" encoding="utf-8"?>
<!-- Generator: Adobe Illustrator 24.1.1, SVG Export Plug-In . SVG Version: 6.00 Build 0)  -->
<svg version="1.1" id="Layer_1" xmlns="http://www.w3.org/2000/svg" xmlns:xlink="http://www.w3.org/1999/xlink" x="0px" y="0px"
	 viewBox="0 0 800 800" style="enable-background:new 0 0 800 800;" xml:space="preserve">
<style type="text/css">
	.st0{fill:#485A96;}
	.st1{fill:#FFFFFF;}
</style>
<path class="st0" d="M709.6,748c21.2,0,38.4-17.2,38.4-38.4V90.4c0-21.2-17.2-38.4-38.4-38.4H90.4C69.2,52,52,69.2,52,90.4v619.2
	c0,21.2,17.2,38.4,38.4,38.4L709.6,748L709.6,748z"/>
<path class="st1" d="M532.2,748V478.5h90.5l13.5-105h-104v-67.1c0-30.4,8.4-51.1,52.1-51.1l55.6,0v-93.9c-9.6-1.3-42.6-4.1-81-4.1
	c-80.2,0-135.1,49-135.1,138.8v77.5H333v105h90.7V748L532.2,748L532.2,748z"/>
</svg>
